<svg width="140" height="140" viewBox="0 0 140 140" fill="none" xmlns="http://www.w3.org/2000/svg">
<path fill-rule="evenodd" clip-rule="evenodd" d="M46.345 97.9432C46.4403 98.3472 46.7722 98.6503 47.184 98.7024C66.2188 101.108 89.9656 99.2624 97.0008 98.6168C97.4234 98.578 97.7693 98.2757 97.8715 97.8638L100.857 85.8291C101.059 85.0154 101.747 84.4154 102.579 84.3152C108.328 83.6229 114.014 82.5585 119.654 81.2453C120.245 81.1077 120.575 80.4777 120.354 79.9124L101.955 32.7416C101.781 32.2944 101.312 32.0349 100.84 32.1193C74.5388 36.8207 48.3694 33.3565 40.469 32.0793C40.0012 32.0037 39.549 32.2643 39.3768 32.7059L20.8265 80.2629C20.6151 80.8049 20.9089 81.4129 21.4687 81.5709C27.4745 83.2656 33.9047 83.8759 40.1539 84.469C40.7092 84.5217 41.263 84.5742 41.8149 84.6274C42.6648 84.7093 43.3668 85.3243 43.563 86.1553L46.345 97.9432ZM44.6785 102.275C43.8667 102.163 43.2109 101.56 43.0224 100.762L40.2511 89.042C40.1533 88.6285 39.8055 88.3222 39.383 88.2764C32.2543 87.5024 22.4906 86.0501 17.1362 83.9056C16.1968 83.5293 15.8033 82.4569 16.1712 81.514L36.6215 29.0994C36.9722 28.2005 37.9147 27.6813 38.8638 27.8548C59.8895 31.6979 81.4314 31.798 102.44 27.8563C103.393 27.6776 104.341 28.1966 104.693 29.0994L125.17 81.5734C125.605 82.6879 124.97 83.9332 123.811 84.2265C117.609 85.7945 111.336 87.1312 104.992 87.949C104.581 88.002 104.243 88.3008 104.144 88.7032L101.152 100.78C100.951 101.595 100.262 102.197 99.4272 102.285C81.3686 104.178 62.7052 104.766 44.6785 102.275ZM73.5575 111.603C60.7102 111.603 51.1628 110.786 51.0175 110.771C49.9506 110.673 49.1634 109.73 49.259 108.663C49.3546 107.596 50.2962 106.808 51.3635 106.901L51.3906 106.904H51.3906C52.267 106.977 73.0904 108.711 94.3749 106.901C95.4418 106.812 96.3794 107.604 96.4707 108.671C96.5621 109.738 95.7645 110.678 94.6972 110.771C87.3367 111.394 80.0285 111.603 73.5575 111.603ZM66.9897 91.5965C65.9169 91.5965 65.0473 92.4662 65.0473 93.539C65.0473 94.6118 65.9169 95.4814 66.9897 95.4814H75.7672C76.84 95.4814 77.7097 94.6118 77.7097 93.539C77.7097 92.4662 76.84 91.5965 75.7672 91.5965H66.9897Z" fill="#253662"/>
<path d="M34.2309 73.7002C34.0099 74.2985 34.4009 74.9474 35.0333 75.0312C58.5607 78.1486 81.447 78.1486 104.966 75.0313C105.598 74.9475 105.989 74.2986 105.768 73.7003C101.89 63.2034 98.2425 54.9419 94.8247 44.2119C94.6803 43.7583 94.2367 43.4664 93.7631 43.5147C77.7456 45.1477 62.2549 45.1414 46.2433 43.5143C45.7702 43.4662 45.327 43.7578 45.1823 44.2109C41.7573 54.9413 38.1097 63.203 34.2309 73.7002ZM111.094 75.5665C111.562 76.7546 110.806 78.069 109.543 78.2557C82.9696 82.1817 57.0304 82.1817 30.4572 78.2557C29.194 78.069 28.4383 76.7546 28.9062 75.5665C33.6836 63.4366 38.1396 53.232 42.2766 40.7604C42.5769 39.855 43.4708 39.2814 44.419 39.3867C61.6643 41.3011 78.3349 41.3011 95.5802 39.3867C96.5284 39.2814 97.4223 39.855 97.7226 40.7604C101.86 53.232 106.316 63.4366 111.094 75.5665Z" fill="url(#paint0_linear_3881_21569)"/>
<defs>
<linearGradient id="paint0_linear_3881_21569" x1="28" y1="60.2002" x2="112" y2="60.2002" gradientUnits="userSpaceOnUse">
<stop stop-color="#8A2A27"/>
<stop offset="1" stop-color="#E3051B"/>
</linearGradient>
</defs>
</svg>
