<svg width="140" height="140" viewBox="0 0 140 140" fill="none" xmlns="http://www.w3.org/2000/svg">
<path d="M98.9542 66.4334C99.4455 66.4334 100.445 65.3566 99.4455 64.6096L92.9735 59.7839C88.0015 56.097 83.0294 52.4012 78.1267 48.6138C71.1721 43.2448 64.2255 40.4542 56.8823 40.0855C53.3994 39.9124 49.9112 39.9927 46.4256 40.0342C45.8769 40.0407 45.4346 40.4869 45.4346 41.0357V65.426C45.4346 65.9783 45.8823 66.426 46.4345 66.426L98.9542 66.4334ZM98.9462 70.0004L43.9998 69.9942C42.8953 69.9941 42 69.0987 42 67.9942V38.4826C42 37.378 42.8954 36.4827 44 36.473C48.3489 36.4347 52.7042 36.3055 57.047 36.5253C65.0961 36.9285 72.6633 39.9446 80.1763 45.7528C85.066 49.5263 90.0172 53.2072 94.9705 56.8881L101.46 61.7141C102.639 62.6037 103.362 63.72 103.552 64.9566C103.723 66.0868 103.436 67.211 102.728 68.2205C101.468 70.0004 99.5748 70.0004 98.9462 70.0004Z" fill="url(#paint0_linear_3881_21555)"/>
<path fill-rule="evenodd" clip-rule="evenodd" d="M38.8018 33.0776C38.2496 33.0776 37.8019 33.5252 37.8018 34.0775L37.7941 105.268C37.794 105.82 38.2418 106.268 38.7941 106.268H99.3308C100.834 106.268 101.267 105.858 101.335 104.355C101.649 97.7965 102.697 91.5141 104.447 85.6676C106.406 79.1312 108.957 74.2571 112.449 70.3158C113.158 69.5188 113.967 68.2882 113.803 66.9725C113.645 65.7003 112.613 64.7374 111.776 64.1616L103.153 58.1713C95.1119 52.5849 87.0652 46.9988 79.0042 41.4326C71.2859 36.1048 62.6465 33.2999 53.3353 33.0989C49.8907 33.0201 46.4461 33.0417 42.9864 33.0634L42.9768 33.0635L39.4314 33.0776H38.8018ZM36.0138 109.906C34.9049 109.906 34.0076 109.004 34.0136 107.895L34.0328 104.363V78.3696V69.6984V31.4475C34.0328 30.3429 34.9282 29.4475 36.0328 29.4475H39.4314L42.9546 29.4319L43.8438 29.4283H43.844C47.0392 29.4154 50.2278 29.4026 53.4178 29.4692C63.5081 29.6843 72.8551 32.718 81.2017 38.4855C87.4814 42.8193 93.7509 47.1708 100.022 51.5234L100.028 51.5276L100.039 51.5348C101.814 52.7674 103.59 53.9999 105.366 55.2322L113.982 61.213C116.062 62.6587 117.295 64.4991 117.55 66.5424C117.812 68.6196 117.041 70.7338 115.329 72.6673C112.188 76.2054 109.884 80.6554 108.074 86.6739C106.398 92.2459 105.404 98.2438 105.112 104.513C104.948 107.935 102.847 109.898 99.3308 109.898L36.0138 109.906ZM44.103 77.3763C44.103 76.3756 44.9143 75.5643 45.915 75.5643H54.6837C55.6844 75.5643 56.4956 76.3756 56.4956 77.3763C56.4956 78.377 55.6844 79.1882 54.6837 79.1882H45.915C44.9143 79.1882 44.103 78.377 44.103 77.3763ZM28.6883 37.3102C27.6453 37.3102 26.7998 38.1557 26.7998 39.1987V100.65C26.7998 101.693 27.6453 102.539 28.6883 102.539C29.7312 102.539 30.5767 101.693 30.5767 100.65V39.1987C30.5767 38.1557 29.7312 37.3102 28.6883 37.3102Z" fill="#253662"/>
<defs>
<linearGradient id="paint0_linear_3881_21555" x1="42" y1="53.2004" x2="103.6" y2="53.2004" gradientUnits="userSpaceOnUse">
<stop stop-color="#8A2A27"/>
<stop offset="1" stop-color="#E3051B"/>
</linearGradient>
</defs>
</svg>
